# xmcd
#
# Track frame offsets:
#	150
#	17889
#	31744
#	53247
#	65695
#	77442
#	90531
#	107521
#	123182
#	139024
#	155185
#
# Disc length: 2297 seconds
#
# Revision: 1
# Processed by: cddbd v1.5.1PL2 Copyright (c) Steve Scherf et al.
# Submitted via: audiograbber 1.83.01
#
DISCID=8608f70b
DTITLE=Nelons - Following After
DYEAR=2000
DGENRE=Southern Gospel
TTITLE0=God Keeps A Candle
TTITLE1=You Ain't Seen The Last Of Jesus
TTITLE2=Hands Of Grace
TTITLE3=Where Sin Had Been Pardoned
TTITLE4=Carry The Glorious Gospel
TTITLE5=Do What
TTITLE6=I Will Trust In The Lord
TTITLE7=He Gets Sweeter To Me
TTITLE8=I'm Covered By The Blood
TTITLE9=Kept On Searchin' Til I Found Him
TTITLE10=Christians Never Say Goodbye
EXTD=
EXTT0=
EXTT1=
EXTT2=
EXTT3=
EXTT4=
EXTT5=
EXTT6=
EXTT7=
EXTT8=
EXTT9=
EXTT10=
PLAYORDER=
